<svg xmlns="http://www.w3.org/2000/svg" viewBox="0 0 32 32">
  <path d="M10 6h12v3c0 3.9-2.8 7-6 7s-6-3.1-6-7V6z" fill="#f5c24a"/>
  <path d="M10 8H7c0 2.8 1.3 5.2 3.8 6.3v-2.2C9.6 11.4 9 10 9 8.8V8z" fill="#e2a92f"/>
  <path d="M22 8h3v0.8c0 1.2-0.6 2.6-1.8 3.3v2.2c2.5-1.1 3.8-3.5 3.8-6.3h-3z" fill="#e2a92f"/>
  <rect x="14" y="16" width="4" height="5" rx="1" fill="#c98f22"/>
  <rect x="11" y="21" width="10" height="3" rx="1.2" fill="#f5c24a"/>
  <rect x="8" y="25" width="16" height="2.8" rx="1.4" fill="#c98f22"/>
  <circle cx="16" cy="10" r="2" fill="#fff2bf" opacity="0.65"/>
</svg>
